<svg width="539" height="381" viewBox="0 0 539 381" fill="none" xmlns="http://www.w3.org/2000/svg">
<path d="M524.86 255.652C524.89 257.965 524.459 260.261 523.594 262.407C522.729 264.553 521.447 266.505 519.821 268.151C518.195 269.797 516.259 271.104 514.124 271.995C511.989 272.887 509.699 273.346 507.385 273.345H382.572C384.386 276.66 385.077 280.474 384.541 284.215C384.005 287.955 382.272 291.422 379.601 294.095C378.582 295.11 377.444 295.999 376.212 296.743H399.269C408.913 296.743 417.076 304.356 417.2 313.99C417.229 316.303 416.797 318.599 415.932 320.745C415.067 322.89 413.784 324.843 412.159 326.489C410.533 328.135 408.597 329.443 406.463 330.335C404.329 331.228 402.039 331.689 399.725 331.69H285.115C281.291 331.689 277.572 330.434 274.529 328.116C271.486 325.799 269.287 322.547 268.27 318.86C267.253 315.173 267.473 311.254 268.897 307.704C270.322 304.154 272.871 301.17 276.154 299.208H207.497C197.853 299.208 189.69 291.595 189.566 281.961C189.526 278.841 190.322 275.768 191.871 273.06C193.42 270.352 195.666 268.108 198.375 266.561C195.537 265.088 193.157 262.863 191.497 260.13C189.836 257.396 188.958 254.259 188.959 251.061V229.661C188.956 226.928 189.596 224.233 190.826 221.793C192.056 219.352 193.842 217.235 196.04 215.612H72.6603C63.0253 215.612 54.8723 208.018 54.7293 198.393C54.695 196.076 55.1218 193.776 55.9849 191.626C56.848 189.476 58.1302 187.518 59.7568 185.869C61.3834 184.219 63.322 182.909 65.4596 182.015C67.5973 181.121 69.8914 180.662 72.2083 180.663H80.9283C84.5088 180.663 87.9425 179.241 90.4743 176.709C93.006 174.177 94.4283 170.743 94.4283 167.163V167.153C94.4283 163.573 93.006 160.139 90.4743 157.607C87.9425 155.075 84.5088 153.653 80.9283 153.653H22.8833C18.2499 153.653 13.8062 151.812 10.5298 148.536C7.25348 145.26 5.41284 140.816 5.41284 136.182C5.41284 131.549 7.25348 127.105 10.5298 123.829C13.8062 120.553 18.2499 118.712 22.8833 118.712H106.808C111.442 118.713 115.886 116.874 119.163 113.598C122.44 110.323 124.282 105.879 124.283 101.246C124.285 96.6125 122.445 92.1684 119.17 88.8912C115.894 85.614 111.451 83.7722 106.817 83.771H82.8463C73.1923 83.771 65.0293 76.139 64.9253 66.486C64.9002 64.1755 65.3337 61.883 66.2006 59.7412C67.0676 57.5994 68.3508 55.6509 69.9759 54.0084C71.6011 52.3659 73.5359 51.0622 75.6684 50.1726C77.8009 49.283 80.0887 48.8253 82.3993 48.826H241.799C251.187 48.826 259.246 56.05 259.699 65.437C259.853 68.5341 259.182 71.6165 257.753 74.369H463.332C467.966 74.369 472.409 76.2096 475.686 79.486C478.962 82.7623 480.803 87.206 480.803 91.8395C480.803 96.473 478.962 100.917 475.686 104.193C472.409 107.469 467.966 109.31 463.332 109.31H387.185C387.182 113.069 385.687 116.674 383.03 119.333C380.372 121.991 376.768 123.487 373.008 123.492H287.175C289.719 125.893 291.483 129.003 292.238 132.419C292.994 135.834 292.707 139.398 291.414 142.648C290.121 145.898 287.882 148.685 284.987 150.648C282.091 152.611 278.673 153.66 275.175 153.658H251.175C250.231 153.657 249.295 153.841 248.422 154.202C247.548 154.562 246.755 155.091 246.086 155.759C245.417 156.426 244.887 157.219 244.524 158.091C244.162 158.964 243.976 159.899 243.975 160.844V160.854C243.976 161.799 244.162 162.734 244.524 163.607C244.887 164.479 245.417 165.272 246.086 165.939C246.755 166.607 247.548 167.136 248.422 167.496C249.295 167.857 250.231 168.041 251.175 168.04H445.989C450.623 168.04 455.066 169.881 458.343 173.157C461.619 176.433 463.46 180.877 463.46 185.51C463.46 190.144 461.619 194.588 458.343 197.864C455.066 201.14 450.623 202.981 445.989 202.981H395.608C398.163 204.544 400.274 206.737 401.738 209.35C403.203 211.963 403.972 214.908 403.971 217.903V222.886C403.973 226.092 403.092 229.236 401.424 231.974C399.756 234.711 397.367 236.937 394.517 238.406H506.929C516.573 238.406 524.736 246.019 524.86 255.653" fill="#FBF8FF"/>
<path d="M489.926 149.072V170.588" stroke="#35008B" stroke-width="2" stroke-miterlimit="10" stroke-linecap="round"/>
<path d="M479.168 159.83H500.684" stroke="#35008B" stroke-width="2" stroke-miterlimit="10" stroke-linecap="round"/>
<path d="M140.525 7.272V26.276" stroke="#35008B" stroke-width="2" stroke-miterlimit="10" stroke-linecap="round"/>
<path d="M131.023 16.774H150.027" stroke="#35008B" stroke-width="2" stroke-miterlimit="10" stroke-linecap="round"/>
<path d="M515.214 37.517C515.214 40.0178 514.472 42.4624 513.083 44.5417C511.694 46.621 509.719 48.2416 507.408 49.1986C505.098 50.1556 502.556 50.4059 500.103 49.918C497.65 49.43 495.397 48.2257 493.629 46.4573C491.861 44.6889 490.657 42.4359 490.169 39.9831C489.681 37.5303 489.932 34.988 490.889 32.6776C491.846 30.3673 493.467 28.3926 495.546 27.0034C497.626 25.6142 500.07 24.8728 502.571 24.873C504.231 24.873 505.876 25.2 507.41 25.8355C508.944 26.4709 510.337 27.4023 511.511 28.5764C512.685 29.7505 513.617 31.1444 514.252 32.6784C514.887 34.2124 515.214 35.8566 515.214 37.517Z" stroke="#35008B" stroke-width="2" stroke-miterlimit="10"/>
<path d="M26.288 243.978C26.289 246.479 25.5483 248.924 24.1595 251.004C22.7707 253.084 20.7962 254.705 18.4859 255.663C16.1755 256.621 13.633 256.872 11.18 256.385C8.72693 255.897 6.47352 254.693 4.70476 252.925C2.936 251.157 1.73137 248.904 1.2432 246.451C0.755037 243.998 1.00528 241.455 1.96228 239.145C2.91928 236.834 4.54005 234.859 6.61958 233.47C8.69912 232.08 11.144 231.339 13.645 231.339C16.9974 231.339 20.2124 232.671 22.5833 235.041C24.9541 237.411 26.2867 240.626 26.288 243.978Z" stroke="#35008B" stroke-width="2" stroke-miterlimit="10"/>
<path d="M537.959 217.542C537.959 218.752 537.6 219.935 536.927 220.942C536.255 221.948 535.299 222.732 534.181 223.195C533.062 223.658 531.832 223.78 530.645 223.543C529.458 223.307 528.367 222.724 527.512 221.868C526.656 221.013 526.073 219.922 525.837 218.735C525.6 217.548 525.722 216.318 526.185 215.199C526.648 214.081 527.432 213.125 528.438 212.453C529.445 211.78 530.628 211.421 531.838 211.421C533.461 211.421 535.018 212.066 536.166 213.214C537.314 214.362 537.959 215.919 537.959 217.542Z" stroke="#35008B" stroke-width="2" stroke-miterlimit="10"/>
<path d="M70.526 192.927C70.5258 194.137 70.1667 195.32 69.4942 196.327C68.8216 197.333 67.8658 198.117 66.7476 198.58C65.6293 199.043 64.3989 199.165 63.2118 198.928C62.0247 198.692 60.9344 198.109 60.0785 197.253C59.2227 196.398 58.6398 195.307 58.4037 194.12C58.1675 192.933 58.2886 191.703 58.7517 190.584C59.2148 189.466 59.999 188.51 61.0053 187.838C62.0116 187.165 63.1947 186.806 64.405 186.806C66.0284 186.806 67.5853 187.451 68.7332 188.599C69.8811 189.747 70.526 191.304 70.526 192.927Z" stroke="#35008B" stroke-width="2" stroke-miterlimit="10"/>
<path d="M276.294 380.579C351.785 380.579 412.982 375.84 412.982 369.995C412.982 364.15 351.785 359.411 276.294 359.411C200.803 359.411 139.606 364.15 139.606 369.995C139.606 375.84 200.803 380.579 276.294 380.579Z" fill="#EDE2FD"/>
<path d="M259.32 1.777L259.338 0H258.604L258.079 0.514L259.32 1.777ZM331.484 2.551L332.75 1.31L332.237 0.785L331.501 0.777L331.484 2.551ZM207.745 52.258L206.504 50.99L205.979 51.504L205.971 52.239L207.745 52.258ZM206.971 124.422L205.194 124.4L205.186 125.135L205.7 125.66L206.971 124.422ZM257.452 176L256.184 177.241L256.698 177.766L257.433 177.774L257.452 176ZM329.616 176.774L329.596 178.548L330.33 178.556L330.855 178.042L329.616 176.774ZM381.194 126.289L382.434 127.557L382.959 127.043L382.968 126.308L381.194 126.289ZM381.967 54.125L383.741 54.144L383.748 53.409L383.235 52.884L381.967 54.125ZM324.164 15.009L325.418 13.755L324.898 13.235H324.164V15.009ZM263.158 15.009V13.235H262.423L261.903 13.755L263.158 15.009ZM367.302 58.146H369.076V57.411L368.556 56.891L367.302 58.146ZM367.302 119.152L368.556 120.406L369.076 119.886V119.151L367.302 119.152ZM324.164 162.29V164.064H324.898L325.418 163.544L324.164 162.29ZM263.158 162.29L261.904 163.544L262.424 164.064H263.159L263.158 162.29ZM220.021 119.152H218.247V119.887L218.766 120.407L220.021 119.152ZM220.021 58.146L218.766 56.891L218.247 57.411V58.146H220.021ZM259.301 3.546L331.465 4.32L331.502 0.772L259.338 0L259.301 3.546ZM208.986 53.526L260.561 3.046L258.079 0.51L206.504 50.99L208.986 53.526ZM208.745 124.441L209.519 52.277L205.971 52.239L205.194 124.4L208.745 124.441ZM258.719 174.756L208.239 123.181L205.704 125.663L256.184 177.238L258.719 174.756ZM329.635 174.997L257.47 174.223L257.432 177.771L329.596 178.545L329.635 174.997ZM379.948 125.023L328.374 175.5L330.856 178.036L382.43 127.555L379.948 125.023ZM380.194 54.107L379.421 126.271L382.969 126.309L383.742 54.145L380.194 54.107ZM330.215 3.792L380.694 55.366L383.231 52.884L332.75 1.31L330.215 3.792ZM324.164 13.235H263.158L263.159 16.783H324.164V13.235ZM368.556 56.891L325.419 13.754L322.911 16.263L366.048 59.4L368.556 56.891ZM369.076 119.151V58.146H365.528V119.152L369.076 119.151ZM325.419 163.544L368.556 120.406L366.048 117.897L322.911 161.035L325.419 163.544ZM263.159 164.064H324.164V160.516H263.159V164.064ZM218.766 120.407L261.904 163.544L264.413 161.036L221.275 117.9L218.766 120.407ZM218.247 58.146V119.152L221.794 119.153V58.146H218.247ZM261.904 13.754L218.766 56.891L221.275 59.4L264.413 16.262L261.904 13.754Z" fill="#35008B"/>
<path d="M300.105 175.626V325.112H287.687V175.626" fill="#EADFFC"/>
<path d="M300.105 175.626V325.112H287.687V175.626" stroke="#35008B" stroke-width="2"/>
<path d="M278.818 312.694H170.606V325.112H278.818V312.694Z" fill="#EADFFC" stroke="#35008B" stroke-width="2"/>
<path d="M207.015 255.584L201.58 273.111H250.327L243.97 255.584H207.015Z" fill="#EADFFC"/>
<path d="M198.026 285.779L189.296 311.054H261.862L253.42 283.887H198.026V285.779Z" fill="white"/>
<path d="M219.721 207.487H230.114L241.964 243.767H210.199L219.721 207.487Z" fill="white"/>
<path d="M209.65 244.81L207.95 244.292L207.25 246.584H209.65V244.81ZM221.008 207.557V205.783H219.694L219.311 207.039L221.008 207.557ZM241.02 244.81V246.583H243.42L242.72 244.291L241.02 244.81ZM229.662 207.557L231.362 207.039L230.975 205.783H229.662V207.557ZM200.996 273.193L199.296 272.675L198.596 274.967H200.996V273.193ZM206.405 255.453V253.683H205.087L204.704 254.939L206.405 255.453ZM249.675 273.193V274.967H252.075L251.375 272.675L249.675 273.193ZM244.266 255.453L245.966 254.935L245.583 253.679H244.269L244.266 255.453ZM197.75 283.837V282.063H196.436L196.053 283.319L197.75 283.837ZM189.232 311.777L187.532 311.259L186.832 313.551H189.232V311.777ZM252.92 283.837L254.62 283.319L254.237 282.063H252.923L252.92 283.837ZM261.438 311.777V313.551H263.838L263.138 311.259L261.438 311.777ZM211.347 245.328L222.705 208.075L219.311 207.039L207.953 244.292L211.347 245.328ZM241.02 243.036H209.65V246.584L241.02 246.583V243.036ZM227.965 208.075L239.323 245.328L242.717 244.292L231.359 207.039L227.965 208.075ZM229.665 205.783H221.008V209.331H229.662L229.665 205.783ZM202.693 273.711L208.101 255.971L204.707 254.935L199.299 272.675L202.693 273.711ZM249.674 271.419H200.996V274.967H249.675L249.674 271.419ZM242.569 255.971L247.977 273.711L251.371 272.675L245.963 254.935L242.569 255.971ZM206.405 257.227H244.266V253.683H206.405V257.227ZM196.053 283.319L187.535 311.259L190.929 312.295L199.447 284.355L196.053 283.319ZM252.919 282.063H197.75V285.611H252.919V282.063ZM263.134 311.263L254.616 283.323L251.222 284.359L259.74 312.299L263.134 311.263ZM189.234 313.555H261.44V310.003H189.232L189.234 313.555Z" fill="#35008B"/>
<path d="M262.625 16.906H323.171L365.834 59.568V118.839L323.171 160.101H262.625L221.869 118.839V59.569L262.625 16.906Z" fill="#EADFFC"/>
<path d="M291.225 123.477C293.179 123.477 294.763 121.893 294.763 119.939C294.763 117.985 293.179 116.401 291.225 116.401C289.271 116.401 287.687 117.985 287.687 119.939C287.687 121.893 289.271 123.477 291.225 123.477Z" fill="#35008B"/>
<path d="M291.226 61.555H291.225C289.271 61.555 287.687 63.139 287.687 65.093V105.786C287.687 107.74 289.271 109.324 291.225 109.324H291.226C293.18 109.324 294.764 107.74 294.764 105.786V65.093C294.764 63.139 293.18 61.555 291.226 61.555Z" fill="#35008B"/>
</svg>
